<svg id="visual" viewBox="0 0 900 600" width="900" height="600" xmlns="http://www.w3.org/2000/svg" xmlns:xlink="http://www.w3.org/1999/xlink" version="1.1"><rect x="0" y="0" width="900" height="600" fill="#191919"></rect><path d="M0 89L45 66L90 103L135 89L180 103L225 100L270 84L315 89L360 93L405 98L450 106L495 86L540 101L585 103L630 88L675 67L720 68L765 101L810 92L855 109L900 78L900 0L855 0L810 0L765 0L720 0L675 0L630 0L585 0L540 0L495 0L450 0L405 0L360 0L315 0L270 0L225 0L180 0L135 0L90 0L45 0L0 0Z" fill="#353535"></path><path d="M0 56L45 78L90 65L135 69L180 84L225 62L270 88L315 86L360 72L405 58L450 51L495 60L540 70L585 59L630 82L675 84L720 64L765 69L810 51L855 70L900 70L900 0L855 0L810 0L765 0L720 0L675 0L630 0L585 0L540 0L495 0L450 0L405 0L360 0L315 0L270 0L225 0L180 0L135 0L90 0L45 0L0 0Z" fill="#313131"></path><path d="M0 46L45 58L90 51L135 35L180 70L225 55L270 68L315 62L360 69L405 68L450 37L495 61L540 53L585 55L630 55L675 42L720 69L765 39L810 59L855 37L900 57L900 0L855 0L810 0L765 0L720 0L675 0L630 0L585 0L540 0L495 0L450 0L405 0L360 0L315 0L270 0L225 0L180 0L135 0L90 0L45 0L0 0Z" fill="#2e2e2e"></path><path d="M0 51L45 30L90 32L135 48L180 21L225 42L270 29L315 42L360 24L405 26L450 29L495 37L540 22L585 26L630 48L675 50L720 21L765 47L810 21L855 46L900 40L900 0L855 0L810 0L765 0L720 0L675 0L630 0L585 0L540 0L495 0L450 0L405 0L360 0L315 0L270 0L225 0L180 0L135 0L90 0L45 0L0 0Z" fill="#2a2a2a"></path><path d="M0 19L45 9L90 21L135 8L180 7L225 31L270 33L315 25L360 7L405 25L450 15L495 15L540 28L585 18L630 30L675 24L720 22L765 19L810 6L855 29L900 23L900 0L855 0L810 0L765 0L720 0L675 0L630 0L585 0L540 0L495 0L450 0L405 0L360 0L315 0L270 0L225 0L180 0L135 0L90 0L45 0L0 0Z" fill="#272727"></path></svg>